<svg xmlns="http://www.w3.org/2000/svg" viewBox="0 0 1000 600" width="1000" height="600">
  <defs>
    <style>
      text { font-family: Georgia, 'Times New Roman', serif; }
    </style>
    <!-- Drop shadow for cards -->
    <filter id="shadow" x="-5%" y="-5%" width="115%" height="115%">
      <feDropShadow dx="1.5" dy="1.5" stdDeviation="2" flood-opacity="0.15"/>
    </filter>
    <!-- Glow for the electron card -->
    <filter id="coralGlow" x="-10%" y="-10%" width="120%" height="120%">
      <feDropShadow dx="0" dy="0" stdDeviation="4" flood-color="#f4845f" flood-opacity="0.45"/>
    </filter>
  </defs>

  <!-- Background -->
  <rect width="1000" height="600" rx="8" fill="#f0f4ff"/>

  <!-- Title -->
  <text x="500" y="38" text-anchor="middle" font-size="19" font-weight="bold" fill="#1e293b" letter-spacing="0.5">Knot Spectrum — Periodic Table of Topological Particles</text>
  <line x1="160" y1="48" x2="840" y2="48" stroke="#cbd5e1" stroke-width="0.7"/>

  <!-- Column headers row -->
  <text x="500" y="68" text-anchor="middle" font-size="11" fill="#64748b" font-style="italic">Each card shows: knot schematic, crossing number, helicity H, charge Q, estimated mass, and stability</text>

  <!-- ============================================================ -->
  <!-- ROW 1: Cards (3 across) -->
  <!-- ============================================================ -->

  <!-- ==================== CARD 1: Unknot (Electron) ==================== -->
  <g transform="translate(35, 88)">
    <!-- Card background — coral-highlighted -->
    <rect width="290" height="210" rx="10" fill="#fff7f5" stroke="#f4845f" stroke-width="2.5" filter="url(#coralGlow)"/>
    <!-- VISIBLE badge -->
    <rect x="190" y="8" width="90" height="20" rx="10" fill="#f4845f"/>
    <text x="235" y="22" text-anchor="middle" font-size="10" fill="#fff" font-weight="bold">VISIBLE</text>
    <!-- Knot name -->
    <text x="15" y="24" font-size="15" font-weight="bold" fill="#1e293b">Unknot (0₁)</text>
    <text x="15" y="40" font-size="10.5" fill="#64748b">Crossing number: 0</text>

    <!-- Knot schematic: simple torus cross-section / circle -->
    <g transform="translate(75, 105)">
      <ellipse cx="0" cy="0" rx="38" ry="38" fill="none" stroke="#a855f7" stroke-width="3.5"/>
      <ellipse cx="0" cy="0" rx="38" ry="38" fill="none" stroke="#c084fc" stroke-width="1" stroke-dasharray="4,6" opacity="0.5"/>
      <!-- Poloidal flow arrow -->
      <path d="M 0,-38 Q 10,-35 6,-28" fill="none" stroke="#a855f7" stroke-width="1.5"/>
      <polygon points="6,-28 9,-34 2,-32" fill="#a855f7"/>
      <!-- Label inside -->
      <text x="0" y="4" text-anchor="middle" font-size="9" fill="#7c3aed" font-style="italic">e⁻ / e⁺</text>
    </g>

    <!-- Properties -->
    <text x="175" y="78" font-size="11" fill="#475569">H = ±1</text>
    <text x="175" y="95" font-size="11" fill="#475569">Q = ±e</text>
    <text x="175" y="116" font-size="12" font-weight="bold" fill="#e9c46a">0.511 MeV</text>
    <rect x="175" y="126" width="58" height="17" rx="4" fill="#dcfce7"/>
    <text x="204" y="138" text-anchor="middle" font-size="9.5" fill="#166534" font-weight="bold">Stable</text>
    <text x="175" y="162" font-size="9" fill="#94a3b8" font-style="italic">Torus with net</text>
    <text x="175" y="174" font-size="9" fill="#94a3b8" font-style="italic">poloidal winding</text>

    <!-- Bottom label -->
    <rect x="0" y="192" width="290" height="18" rx="0 0 10 10" fill="#f4845f" opacity="0.12"/>
    <text x="145" y="205" text-anchor="middle" font-size="9.5" fill="#c2410c" font-weight="bold">Known particle — the electron</text>
  </g>

  <!-- ==================== CARD 2: Trefoil ==================== -->
  <g transform="translate(355, 88)">
    <rect width="290" height="210" rx="10" fill="#f8fafc" stroke="#5eead4" stroke-width="2" filter="url(#shadow)"/>
    <!-- DARK badge -->
    <rect x="205" y="8" width="75" height="20" rx="10" fill="#334155"/>
    <text x="242.5" y="22" text-anchor="middle" font-size="10" fill="#e2e8f0" font-weight="bold">DARK</text>
    <!-- Knot name -->
    <text x="15" y="24" font-size="15" font-weight="bold" fill="#1e293b">Trefoil (3₁)</text>
    <text x="15" y="40" font-size="10.5" fill="#64748b">Crossing number: 3</text>

    <!-- Trefoil knot schematic -->
    <g transform="translate(75, 108)">
      <!-- Trefoil approximation using cubic bezier paths with over/under crossings -->
      <!-- Lobe top -->
      <path d="M 0,-35 C 30,-35 35,-5 18,8" fill="none" stroke="#a855f7" stroke-width="3.5" stroke-linecap="round"/>
      <!-- Lobe bottom-right -->
      <path d="M 18,8 C 0,22 -5,40 15,35" fill="none" stroke="#a855f7" stroke-width="3.5" stroke-linecap="round"/>
      <!-- Under-crossing gap 1 -->
      <path d="M 15,35 C 35,30 25,5 18,8" fill="none" stroke="#f8fafc" stroke-width="7"/>
      <path d="M 15,35 C 30,32 38,15 20,2" fill="none" stroke="#a855f7" stroke-width="3.5" stroke-linecap="round"/>
      <!-- Lobe bottom-left -->
      <path d="M -18,8 C -5,22 5,40 -15,35" fill="none" stroke="#a855f7" stroke-width="3.5" stroke-linecap="round"/>
      <!-- Under-crossing gap 2 -->
      <path d="M -15,35 C -35,30 -25,5 -18,8" fill="none" stroke="#f8fafc" stroke-width="7"/>
      <path d="M -15,35 C -30,32 -38,15 -20,2" fill="none" stroke="#a855f7" stroke-width="3.5" stroke-linecap="round"/>
      <!-- Lobe top-left -->
      <path d="M 0,-35 C -30,-35 -35,-5 -18,8" fill="none" stroke="#a855f7" stroke-width="3.5" stroke-linecap="round"/>
      <!-- Under-crossing gap 3 (top) -->
      <path d="M -8,-12 L 8,-12" fill="none" stroke="#f8fafc" stroke-width="7"/>
      <path d="M -12,-15 C -4,-8 4,-8 12,-15" fill="none" stroke="#a855f7" stroke-width="3.5" stroke-linecap="round"/>
    </g>

    <!-- Properties -->
    <text x="175" y="78" font-size="11" fill="#475569">H = 0</text>
    <text x="175" y="95" font-size="11" fill="#475569">Q = 0</text>
    <text x="175" y="116" font-size="12" font-weight="bold" fill="#e9c46a">~0.6–1.0 MeV</text>
    <rect x="175" y="126" width="58" height="17" rx="4" fill="#dcfce7"/>
    <text x="204" y="138" text-anchor="middle" font-size="9.5" fill="#166534" font-weight="bold">Stable</text>
    <text x="175" y="162" font-size="9" fill="#94a3b8" font-style="italic">Simplest torus knot</text>
    <text x="175" y="174" font-size="9" fill="#94a3b8" font-style="italic">3 crossings, chiral</text>

    <rect x="0" y="192" width="290" height="18" rx="0 0 10 10" fill="#334155" opacity="0.08"/>
    <text x="145" y="205" text-anchor="middle" font-size="9.5" fill="#334155" font-weight="bold">Dark matter candidate</text>
  </g>

  <!-- ==================== CARD 3: Figure-8 ==================== -->
  <g transform="translate(675, 88)">
    <rect width="290" height="210" rx="10" fill="#f8fafc" stroke="#5eead4" stroke-width="2" filter="url(#shadow)"/>
    <rect x="205" y="8" width="75" height="20" rx="10" fill="#334155"/>
    <text x="242.5" y="22" text-anchor="middle" font-size="10" fill="#e2e8f0" font-weight="bold">DARK</text>
    <text x="15" y="24" font-size="15" font-weight="bold" fill="#1e293b">Figure-8 (4₁)</text>
    <text x="15" y="40" font-size="10.5" fill="#64748b">Crossing number: 4</text>

    <!-- Figure-8 knot schematic -->
    <g transform="translate(75, 108)">
      <!-- Top loop -->
      <path d="M 0,-32 C 28,-32 32,-8 12,2" fill="none" stroke="#a855f7" stroke-width="3.5" stroke-linecap="round"/>
      <path d="M 0,-32 C -28,-32 -32,-8 -12,2" fill="none" stroke="#a855f7" stroke-width="3.5" stroke-linecap="round"/>
      <!-- Bottom loop -->
      <path d="M 12,2 C 32,14 28,38 0,35" fill="none" stroke="#a855f7" stroke-width="3.5" stroke-linecap="round"/>
      <path d="M -12,2 C -32,14 -28,38 0,35" fill="none" stroke="#a855f7" stroke-width="3.5" stroke-linecap="round"/>
      <!-- Crossing gaps (4 crossings) -->
      <line x1="-6" y1="-14" x2="6" y2="-14" stroke="#f8fafc" stroke-width="7"/>
      <path d="M -8,-18 C 0,-10 0,-10 8,-18" fill="none" stroke="#a855f7" stroke-width="3" stroke-linecap="round"/>
      <line x1="-6" y1="16" x2="6" y2="16" stroke="#f8fafc" stroke-width="7"/>
      <path d="M -8,20 C 0,12 0,12 8,20" fill="none" stroke="#a855f7" stroke-width="3" stroke-linecap="round"/>
      <!-- Vertical crossings -->
      <line x1="16" y1="-2" x2="16" y2="8" stroke="#f8fafc" stroke-width="7"/>
      <path d="M 18,-5 C 14,3 14,3 18,11" fill="none" stroke="#a855f7" stroke-width="3" stroke-linecap="round"/>
      <line x1="-16" y1="-2" x2="-16" y2="8" stroke="#f8fafc" stroke-width="7"/>
      <path d="M -18,-5 C -14,3 -14,3 -18,11" fill="none" stroke="#a855f7" stroke-width="3" stroke-linecap="round"/>
    </g>

    <text x="175" y="78" font-size="11" fill="#475569">H = 0</text>
    <text x="175" y="95" font-size="11" fill="#475569">Q = 0</text>
    <text x="175" y="116" font-size="12" font-weight="bold" fill="#e9c46a">~0.8–1.3 MeV</text>
    <rect x="175" y="126" width="58" height="17" rx="4" fill="#dcfce7"/>
    <text x="204" y="138" text-anchor="middle" font-size="9.5" fill="#166534" font-weight="bold">Stable</text>
    <text x="175" y="162" font-size="9" fill="#94a3b8" font-style="italic">Amphichiral knot</text>
    <text x="175" y="174" font-size="9" fill="#94a3b8" font-style="italic">4 crossings, achiral</text>

    <rect x="0" y="192" width="290" height="18" rx="0 0 10 10" fill="#334155" opacity="0.08"/>
    <text x="145" y="205" text-anchor="middle" font-size="9.5" fill="#334155" font-weight="bold">Dark matter candidate</text>
  </g>

  <!-- ============================================================ -->
  <!-- ROW 2: Cards (3 across) -->
  <!-- ============================================================ -->

  <!-- ==================== CARD 4: Cinquefoil ==================== -->
  <g transform="translate(35, 318)">
    <rect width="290" height="210" rx="10" fill="#f8fafc" stroke="#5eead4" stroke-width="2" filter="url(#shadow)"/>
    <rect x="205" y="8" width="75" height="20" rx="10" fill="#334155"/>
    <text x="242.5" y="22" text-anchor="middle" font-size="10" fill="#e2e8f0" font-weight="bold">DARK</text>
    <text x="15" y="24" font-size="15" font-weight="bold" fill="#1e293b">Cinquefoil (5₁)</text>
    <text x="15" y="40" font-size="10.5" fill="#64748b">Crossing number: 5</text>

    <!-- Cinquefoil knot schematic — 5-pointed star-like torus knot -->
    <g transform="translate(75, 108)">
      <!-- Pentagonal torus knot approximation -->
      <!-- Five lobes radiating outward -->
      <path d="M 0,-36 C 12,-30 20,-18 14,-6" fill="none" stroke="#a855f7" stroke-width="3.5" stroke-linecap="round"/>
      <path d="M 14,-6 C 8,6 22,16 34,10" fill="none" stroke="#a855f7" stroke-width="3.5" stroke-linecap="round"/>
      <path d="M 34,10 C 28,22 18,28 8,30" fill="none" stroke="#a855f7" stroke-width="3.5" stroke-linecap="round"/>
      <!-- Gap for crossing -->
      <line x1="4" y1="26" x2="14" y2="22" stroke="#f8fafc" stroke-width="7"/>
      <path d="M 8,30 C -2,32 -18,28 -8,30" fill="none" stroke="#a855f7" stroke-width="3" stroke-linecap="round"/>

      <path d="M -8,30 C -18,28 -28,22 -34,10" fill="none" stroke="#a855f7" stroke-width="3.5" stroke-linecap="round"/>
      <!-- Gap for crossing -->
      <line x1="-28" y1="6" x2="-20" y2="0" stroke="#f8fafc" stroke-width="7"/>
      <path d="M -34,10 C -22,16 -8,6 -14,-6" fill="none" stroke="#a855f7" stroke-width="3" stroke-linecap="round"/>

      <path d="M -14,-6 C -20,-18 -12,-30 0,-36" fill="none" stroke="#a855f7" stroke-width="3.5" stroke-linecap="round"/>
      <!-- Gap for crossing at top -->
      <line x1="-4" y1="-30" x2="4" y2="-30" stroke="#f8fafc" stroke-width="7"/>
      <path d="M -6,-28 C 0,-34 0,-34 6,-28" fill="none" stroke="#a855f7" stroke-width="3" stroke-linecap="round"/>

      <!-- Additional crossing indicators -->
      <line x1="22" y1="-12" x2="18" y2="-4" stroke="#f8fafc" stroke-width="7"/>
      <path d="M 24,-15 C 20,-8 16,-1 20,-8" fill="none" stroke="#a855f7" stroke-width="3" stroke-linecap="round"/>
      <line x1="-22" y1="-12" x2="-18" y2="-4" stroke="#f8fafc" stroke-width="7"/>
      <path d="M -24,-15 C -20,-8 -16,-1 -20,-8" fill="none" stroke="#a855f7" stroke-width="3" stroke-linecap="round"/>

      <text x="0" y="6" text-anchor="middle" font-size="8" fill="#7c3aed" opacity="0.6">5×</text>
    </g>

    <text x="175" y="78" font-size="11" fill="#475569">H = 0</text>
    <text x="175" y="95" font-size="11" fill="#475569">Q = 0</text>
    <text x="175" y="116" font-size="12" font-weight="bold" fill="#e9c46a">~1.0–1.5 MeV</text>
    <rect x="175" y="126" width="58" height="17" rx="4" fill="#dcfce7"/>
    <text x="204" y="138" text-anchor="middle" font-size="9.5" fill="#166534" font-weight="bold">Stable</text>
    <text x="175" y="162" font-size="9" fill="#94a3b8" font-style="italic">Torus knot T(5,2)</text>
    <text x="175" y="174" font-size="9" fill="#94a3b8" font-style="italic">5 crossings, chiral</text>

    <rect x="0" y="192" width="290" height="18" rx="0 0 10 10" fill="#334155" opacity="0.08"/>
    <text x="145" y="205" text-anchor="middle" font-size="9.5" fill="#334155" font-weight="bold">Dark matter candidate</text>
  </g>

  <!-- ==================== CARD 5: Three-twist ==================== -->
  <g transform="translate(355, 318)">
    <rect width="290" height="210" rx="10" fill="#f8fafc" stroke="#5eead4" stroke-width="2" filter="url(#shadow)"/>
    <rect x="205" y="8" width="75" height="20" rx="10" fill="#334155"/>
    <text x="242.5" y="22" text-anchor="middle" font-size="10" fill="#e2e8f0" font-weight="bold">DARK</text>
    <text x="15" y="24" font-size="15" font-weight="bold" fill="#1e293b">Three-twist (5₂)</text>
    <text x="15" y="40" font-size="10.5" fill="#64748b">Crossing number: 5</text>

    <!-- Three-twist knot schematic -->
    <g transform="translate(75, 108)">
      <!-- Elongated twist pattern -->
      <!-- Main loop outline -->
      <path d="M -30,-20 C -30,-35 30,-35 30,-20" fill="none" stroke="#a855f7" stroke-width="3.5" stroke-linecap="round"/>
      <path d="M -30,20 C -30,35 30,35 30,20" fill="none" stroke="#a855f7" stroke-width="3.5" stroke-linecap="round"/>
      <!-- Left side -->
      <path d="M -30,-20 C -35,-10 -35,10 -30,20" fill="none" stroke="#a855f7" stroke-width="3.5" stroke-linecap="round"/>
      <!-- Right side -->
      <path d="M 30,-20 C 35,-10 35,10 30,20" fill="none" stroke="#a855f7" stroke-width="3.5" stroke-linecap="round"/>

      <!-- Three twist crossings in the middle -->
      <!-- Twist 1 -->
      <line x1="-12" y1="-14" x2="-4" y2="-8" stroke="#f8fafc" stroke-width="7"/>
      <path d="M -15,-17 C -8,-10 -8,-10 -1,-5" fill="none" stroke="#a855f7" stroke-width="3" stroke-linecap="round"/>
      <!-- Twist 2 -->
      <line x1="-4" y1="-2" x2="4" y2="4" stroke="#f8fafc" stroke-width="7"/>
      <path d="M -7,-5 C 0,2 0,2 7,7" fill="none" stroke="#a855f7" stroke-width="3" stroke-linecap="round"/>
      <!-- Twist 3 -->
      <line x1="4" y1="10" x2="12" y2="16" stroke="#f8fafc" stroke-width="7"/>
      <path d="M 1,7 C 8,14 8,14 15,19" fill="none" stroke="#a855f7" stroke-width="3" stroke-linecap="round"/>

      <!-- Connecting strands through twists -->
      <path d="M -15,19 C -8,12 8,-12 15,-17" fill="none" stroke="#a855f7" stroke-width="3.5" stroke-linecap="round" opacity="0.6"/>
      <path d="M 15,19 C 8,12 -8,-12 -15,-17" fill="none" stroke="#a855f7" stroke-width="3.5" stroke-linecap="round" opacity="0.6"/>

      <!-- Additional crossings at edges -->
      <circle cx="-24" cy="0" r="2" fill="#a855f7" opacity="0.4"/>
      <circle cx="24" cy="0" r="2" fill="#a855f7" opacity="0.4"/>
    </g>

    <text x="175" y="78" font-size="11" fill="#475569">H = 0</text>
    <text x="175" y="95" font-size="11" fill="#475569">Q = 0</text>
    <text x="175" y="116" font-size="12" font-weight="bold" fill="#e9c46a">~1.0–1.6 MeV</text>
    <rect x="175" y="126" width="58" height="17" rx="4" fill="#dcfce7"/>
    <text x="204" y="138" text-anchor="middle" font-size="9.5" fill="#166534" font-weight="bold">Stable</text>
    <text x="175" y="162" font-size="9" fill="#94a3b8" font-style="italic">Twist knot with</text>
    <text x="175" y="174" font-size="9" fill="#94a3b8" font-style="italic">3 half-twists</text>

    <rect x="0" y="192" width="290" height="18" rx="0 0 10 10" fill="#334155" opacity="0.08"/>
    <text x="145" y="205" text-anchor="middle" font-size="9.5" fill="#334155" font-weight="bold">Dark matter candidate</text>
  </g>

  <!-- ==================== CARD 6: Whitehead Link ==================== -->
  <g transform="translate(675, 318)">
    <rect width="290" height="210" rx="10" fill="#f8fafc" stroke="#5eead4" stroke-width="2" filter="url(#shadow)"/>
    <rect x="205" y="8" width="75" height="20" rx="10" fill="#334155"/>
    <text x="242.5" y="22" text-anchor="middle" font-size="10" fill="#e2e8f0" font-weight="bold">DARK</text>
    <text x="15" y="24" font-size="15" font-weight="bold" fill="#1e293b">Whitehead Link</text>
    <text x="15" y="40" font-size="10.5" fill="#64748b">Crossing number: 5</text>

    <!-- Whitehead link schematic — two linked loops -->
    <g transform="translate(75, 108)">
      <!-- Loop 1 (left, larger) -->
      <ellipse cx="-8" cy="0" rx="30" ry="22" fill="none" stroke="#a855f7" stroke-width="3.5"/>
      <!-- Loop 2 (right, threaded through) -->
      <ellipse cx="12" cy="0" rx="24" ry="18" fill="none" stroke="#c084fc" stroke-width="3.5"/>

      <!-- Crossing overrides to show linking -->
      <!-- Top crossing: loop2 goes under loop1 -->
      <line x1="8" y1="-20" x2="16" y2="-16" stroke="#f8fafc" stroke-width="8"/>
      <path d="M 5,-22 C 12,-18 12,-18 19,-14" fill="none" stroke="#c084fc" stroke-width="3.5" stroke-linecap="round"/>

      <!-- Bottom crossing: loop2 goes over loop1 -->
      <line x1="4" y1="18" x2="12" y2="22" stroke="#f8fafc" stroke-width="8"/>
      <path d="M 1,16 C 8,20 8,20 15,24" fill="none" stroke="#a855f7" stroke-width="3.5" stroke-linecap="round"/>

      <!-- Additional crossings for the twist -->
      <line x1="18" y1="-4" x2="22" y2="4" stroke="#f8fafc" stroke-width="7"/>
      <path d="M 16,-7 C 20,0 20,0 24,7" fill="none" stroke="#c084fc" stroke-width="3" stroke-linecap="round"/>

      <!-- Linking indicator -->
      <text x="0" y="38" text-anchor="middle" font-size="7.5" fill="#7c3aed" opacity="0.7">linked loops</text>
    </g>

    <text x="175" y="78" font-size="11" fill="#475569">H = 0</text>
    <text x="175" y="95" font-size="11" fill="#475569">Q = 0</text>
    <text x="175" y="116" font-size="12" font-weight="bold" fill="#e9c46a">~0.7–1.3 MeV</text>
    <rect x="175" y="126" width="58" height="17" rx="4" fill="#dcfce7"/>
    <text x="204" y="138" text-anchor="middle" font-size="9.5" fill="#166534" font-weight="bold">Stable</text>
    <text x="175" y="162" font-size="9" fill="#94a3b8" font-style="italic">Two-component link</text>
    <text x="175" y="174" font-size="9" fill="#94a3b8" font-style="italic">5 crossings, non-trivial</text>

    <rect x="0" y="192" width="290" height="18" rx="0 0 10 10" fill="#334155" opacity="0.08"/>
    <text x="145" y="205" text-anchor="middle" font-size="9.5" fill="#334155" font-weight="bold">Dark matter candidate</text>
  </g>

  <!-- ============================================================ -->
  <!-- Key / Legend at bottom -->
  <!-- ============================================================ -->
  <g transform="translate(35, 548)">
    <!-- Coral marker -->
    <rect x="0" y="0" width="12" height="12" rx="3" fill="none" stroke="#f4845f" stroke-width="2"/>
    <text x="18" y="10" font-size="9.5" fill="#64748b">= Visible (H = ±1, charged)</text>

    <!-- Teal marker -->
    <rect x="185" y="0" width="12" height="12" rx="3" fill="none" stroke="#5eead4" stroke-width="2"/>
    <text x="203" y="10" font-size="9.5" fill="#64748b">= Dark (H = 0, neutral, no EM coupling)</text>

    <!-- Mass indicator -->
    <rect x="445" y="0" width="12" height="12" rx="3" fill="#e9c46a" opacity="0.4"/>
    <text x="463" y="10" font-size="9.5" fill="#64748b">= Estimated rest mass</text>

    <!-- Knot color -->
    <rect x="625" y="0" width="12" height="12" rx="3" fill="#a855f7"/>
    <text x="643" y="10" font-size="9.5" fill="#64748b">= Topological EM field configuration</text>
  </g>

  <!-- Caption -->
  <text x="500" y="580" text-anchor="middle" font-size="11" fill="#475569" font-style="italic">Figure 6: Classification of stable topological EM configurations by knot type. The electron is one entry in a larger spectrum; most are dark.</text>

  <!-- Subtle connecting line between rows to suggest spectrum -->
  <line x1="50" y1="305" x2="950" y2="305" stroke="#e2e8f0" stroke-width="1" stroke-dasharray="3,5"/>
  <text x="500" y="313" text-anchor="middle" font-size="8.5" fill="#94a3b8">increasing topological complexity →</text>
</svg>